# xmcd
#
# Track frame offsets:
#	150
#	16048
#	32341
#	52061
#	72433
#	90240
#	108171
#	127751
#	147519
#	166816
#	184245
#	203199
#
# Disc length: 2917 seconds
#
# Revision: 0
# Processed by: cddbd v1.5.2PL0 Copyright (c) Steve Scherf et al.
# Submitted via: EasyCDDAExtractor 10.0.3.1
#
DISCID=960b630c
DTITLE=Yö - Pelko ja Rakkaus
DYEAR=2012
DGENRE=Pop
TTITLE0=Syyt syntyjen
TTITLE1=Rakkaus ei kuole milloinkaan
TTITLE2=Pelko ja rakkaus
TTITLE3=Helmoista taivaan
TTITLE4=Löytöretkellä
TTITLE5=Kauneinta päällä maan
TTITLE6=Tunnit
TTITLE7=Muistikuvat
TTITLE8=Ystävyyden haudalla
TTITLE9=Tyhjästä onnellinen
TTITLE10=Aina osa mua
TTITLE11=Haaksirikko
EXTD=
EXTT0=
EXTT1=
EXTT2=
EXTT3=
EXTT4=
EXTT5=
EXTT6=
EXTT7=
EXTT8=
EXTT9=
EXTT10=
EXTT11=
PLAYORDER=
